<svg width="20" height="20" viewBox="0 0 20 20" fill="none" xmlns="http://www.w3.org/2000/svg">
<path fill-rule="evenodd" clip-rule="evenodd" d="M4.50006 15.6251L4.50006 8.2017C4.78391 8.31363 5.09317 8.37512 5.41679 8.37512C5.74037 8.37512 6.04958 8.31365 6.3334 8.20175L6.3334 15.6251C6.3334 16.1313 5.92299 16.5417 5.41673 16.5417C4.91047 16.5417 4.50006 16.1313 4.50006 15.6251ZM5.41679 3.37512C5.09317 3.37512 4.78391 3.43661 4.50006 3.54855L4.50006 2.70841C4.50006 2.20215 4.91047 1.79175 5.41673 1.79175C5.92299 1.79175 6.3334 2.20215 6.3334 2.70841V3.5485C6.04958 3.43659 5.74037 3.37512 5.41679 3.37512ZM13.6668 15.6252L13.6668 8.20174C13.9506 8.31365 14.2599 8.37512 14.5834 8.37512C14.907 8.37512 15.2163 8.31364 15.5001 8.20171V15.6252C15.5001 16.1314 15.0897 16.5418 14.5835 16.5418C14.0772 16.5418 13.6668 16.1314 13.6668 15.6252ZM14.5834 3.37512C14.2599 3.37512 13.9506 3.4366 13.6668 3.54851V2.70852C13.6668 2.20226 14.0772 1.79185 14.5835 1.79185C15.0897 1.79185 15.5001 2.20226 15.5001 2.70852V3.54854C15.2163 3.43661 14.907 3.37512 14.5834 3.37512ZM10.9166 11.7983L10.9166 4.37491C10.9166 3.86865 10.5062 3.45825 9.99991 3.45825C9.49365 3.45825 9.08324 3.86865 9.08324 4.37491L9.08324 11.7983C9.36709 11.6864 9.67634 11.6249 9.99995 11.6249C10.3235 11.6249 10.6328 11.6863 10.9166 11.7983ZM10.9166 16.4515C10.6328 16.5634 10.3235 16.6249 9.99995 16.6249C9.67634 16.6249 9.36708 16.5634 9.08324 16.4515V17.2916C9.08324 17.7978 9.49365 18.2082 9.99991 18.2082C10.5062 18.2082 10.9166 17.7978 10.9166 17.2916V16.4515ZM5.41667 6.41677C5.11752 6.41677 4.87501 6.17426 4.87501 5.8751C4.87501 5.57595 5.11752 5.33344 5.41667 5.33344C5.71583 5.33344 5.95834 5.57595 5.95834 5.8751C5.95834 6.17426 5.71583 6.41677 5.41667 6.41677ZM3.54167 5.8751C3.54167 4.83957 4.38114 4.0001 5.41667 4.0001C6.45221 4.0001 7.29167 4.83957 7.29167 5.8751C7.29167 6.91064 6.45221 7.7501 5.41667 7.7501C4.38114 7.7501 3.54167 6.91064 3.54167 5.8751ZM14.0416 5.8751C14.0416 6.17426 14.2841 6.41677 14.5833 6.41677C14.8824 6.41677 15.1249 6.17426 15.1249 5.8751C15.1249 5.57595 14.8824 5.33344 14.5833 5.33344C14.2841 5.33344 14.0416 5.57595 14.0416 5.8751ZM14.5833 4.0001C13.5477 4.0001 12.7083 4.83957 12.7083 5.8751C12.7083 6.91064 13.5477 7.7501 14.5833 7.7501C15.6188 7.7501 16.4583 6.91064 16.4583 5.8751C16.4583 4.83957 15.6188 4.0001 14.5833 4.0001ZM9.99993 13.5833C10.2991 13.5833 10.5416 13.8258 10.5416 14.125C10.5416 14.4241 10.2991 14.6667 9.99993 14.6667C9.70077 14.6667 9.45826 14.4241 9.45826 14.125C9.45826 13.8258 9.70077 13.5833 9.99993 13.5833ZM11.8749 14.125C11.8749 15.1605 11.0355 16 9.99993 16C8.96439 16 8.12493 15.1605 8.12493 14.125C8.12493 13.0895 8.9644 12.25 9.99993 12.25C11.0355 12.25 11.8749 13.0895 11.8749 14.125Z" fill="#272727"/>
</svg>
