<svg width="24" height="24" viewBox="0 0 24 24" fill="none" xmlns="http://www.w3.org/2000/svg">
<path fill-rule="evenodd" clip-rule="evenodd" d="M9.78402 5.47217C9.74285 5.47221 9.70183 5.47542 9.66135 5.48173C9.57933 5.49436 9.50142 5.51944 9.42961 5.55499C9.40571 5.56677 9.38235 5.57978 9.35963 5.59397L5.93459 7.62144C5.55438 7.84651 5.42854 8.33722 5.65352 8.71748C5.8785 9.09774 6.3691 9.22354 6.7493 8.99848L8.98407 7.6756L8.98407 12.2724C8.98407 12.7142 9.34225 13.0724 9.78407 13.0724C10.2259 13.0724 10.5841 12.7142 10.5841 12.2724V7.6756L12.8188 8.99848C13.199 9.22355 13.6896 9.09774 13.9146 8.71748C14.1396 8.33722 14.0138 7.84651 13.6336 7.62144L10.2085 5.59396C10.1858 5.57976 10.1624 5.56675 10.1385 5.55495C10.103 5.53739 10.066 5.52237 10.0277 5.51016C9.94781 5.48451 9.8656 5.4721 9.78402 5.47217ZM14.2157 18.5276C14.2569 18.5276 14.2979 18.5244 14.3384 18.5181C14.4205 18.5055 14.4984 18.4804 14.5702 18.4448C14.5941 18.433 14.6174 18.42 14.6402 18.4058L18.0652 16.3784C18.4454 16.1533 18.5712 15.6626 18.3463 15.2823C18.1213 14.9021 17.6307 14.7763 17.2505 15.0013L15.0157 16.3242V11.7274C15.0157 11.2856 14.6575 10.9274 14.2157 10.9274C13.7739 10.9274 13.4157 11.2856 13.4157 11.7274V16.3242L11.1809 15.0013C10.8007 14.7763 10.3101 14.9021 10.0852 15.2823C9.86018 15.6626 9.98602 16.1533 10.3662 16.3784L13.7913 18.4059C13.814 18.4201 13.8374 18.4331 13.8613 18.4449C13.8968 18.4624 13.9338 18.4774 13.972 18.4897C14.052 18.5153 14.1342 18.5277 14.2157 18.5276Z" fill="#272727"/>
</svg>
